<?xml version="1.0" standalone="no"?><!DOCTYPE svg PUBLIC "-//W3C//DTD SVG 1.1//EN" "http://www.w3.org/Graphics/SVG/1.1/DTD/svg11.dtd"><svg class="icon" width="16px" height="16.00px" viewBox="0 0 1024 1024" version="1.1" xmlns="http://www.w3.org/2000/svg"><path fill="#409eff" d="M751 273.5c-10.3 0-20.8 0.9-31.4 2.6-6-53.6-29.8-103.3-68.4-142C606.1 88.9 546.1 64 482.3 64c-63.8 0-123.9 24.8-169 70-45.1 45.2-70 105.3-70 169.2 0 9.9 0.7 19.8 2.1 29.9h-2.1c-98.8 0-179.2 80.4-179.3 179.4 0 99 80.3 179.5 179.1 179.6v-59.8c-65.9 0-119.4-53.7-119.4-119.7S177.3 393 243.2 393c10 0 20.6 1.7 33.3 5.4l54.9 16.1-18.2-54.3c-6.9-20.4-10.2-39-10.2-56.9 0-99 80.5-179.4 179.3-179.4 98.8 0 179.1 80.5 179.1 179.4 0 0.4-0.2 1.5-0.3 2.3-0.3 2-0.6 4.6-0.8 7.5l-2.4 45.1 42.4-15.4c17.7-6.4 34.3-9.5 50.7-9.5 82.3 0 149.3 67.2 149.3 149.6 0 72.3-31.4 149.6-119.5 149.5v59.8c56.3 0 103.1-22.2 135.4-64.2 28.7-37.3 43.8-87.4 43.8-145.1 0-115.4-93.7-209.4-209-209.4z"  /><path fill="#409eff" d="M288 575.4v256.4h192v64.1H352V960h320v-64.1H544v-64.1h192V511.3H288v64.1z m64 64.1h320v128.2H352V639.5z"  /></svg>