<?xml version="1.0" standalone="no"?><!DOCTYPE svg PUBLIC "-//W3C//DTD SVG 1.1//EN" "http://www.w3.org/Graphics/SVG/1.1/DTD/svg11.dtd"><svg class="icon" width="16px" height="16.00px" viewBox="0 0 1024 1024" version="1.1" xmlns="http://www.w3.org/2000/svg"><path fill="#409eff" d="M226.592 794.62a45.474 45.474 0 0 1-46.272-45.076 48.267 48.267 0 0 1 45.474-47.07h304.36a199.45 199.45 0 0 1 193.864-153.975 137.221 137.221 0 0 1 17.95 1.995v-319.12a115.68 115.68 0 0 0-115.68-114.882H260.099V559.27a19.546 19.546 0 0 1-39.89 0V121.678a112.09 112.09 0 0 0-79.78 107.304v503.01A101.32 101.32 0 0 0 241.75 834.51h302.366a188.679 188.679 0 0 1-13.962-39.89z m143.603-583.988h268.858A18.748 18.748 0 0 1 658.2 229.78a19.147 19.147 0 0 1-19.147 19.147H370.195a19.147 19.147 0 0 1-19.147-19.147 18.748 18.748 0 0 1 19.147-19.147z m0 75.392h239.34a19.147 19.147 0 0 1 0 39.89h-239.34a19.147 19.147 0 0 1 0-39.89z m0 75.392H509.81a19.147 19.147 0 0 1 19.147 19.147 18.748 18.748 0 0 1-19.147 19.147H370.195a18.748 18.748 0 0 1-19.147-19.147 19.147 19.147 0 0 1 19.147-19.147zM724.018 588.39a159.56 159.56 0 1 0 159.56 159.558 159.56 159.56 0 0 0-159.56-159.559z m89.752 182.296h-68.61v63.823a19.945 19.945 0 0 1-19.945 19.945 20.344 20.344 0 0 1-19.945-19.945v-63.823h-71.004a19.945 19.945 0 0 1 0-39.89h71.004v-68.212a19.945 19.945 0 0 1 19.945-19.945 19.945 19.945 0 0 1 19.945 19.945v68.212h68.61a19.945 19.945 0 1 1 0 39.89z" /></svg>